PathFileType	4	(X/Y/Z)	SUBJ36_0_static_RCNL2025.trc
DataRate	CameraRate	NumFrames	NumMarkers	Units	OrigDataRate	OrigDataStartFrame	OrigNumFrames
100	100	13	25	mm	100	126	143
Frame#	Time	R_Shoulder			L_Shoulder			C7			J_Notch			R_Elbow			L_Elbow			R_Wrist			L_Wrist			R_Asis			L_Asis			Sacral			Thoracic			Sternum			R_Thigh_Lateral			R_Knee_Lateral			R_Shank_Lateral			R_Ankle_Lateral			R_Heel			R_Toe			L_Thigh_Lateral			L_Knee_Lateral			L_Shank_Lateral			L_Ankle_Lateral			L_Heel			L_Toe		
		X1	Y1	Z1	X2	Y2	Z2	X3	Y3	Z3	X4	Y4	Z4	X5	Y5	Z5	X6	Y6	Z6	X7	Y7	Z7	X8	Y8	Z8	X9	Y9	Z9	X10	Y10	Z10	X11	Y11	Z11	X12	Y12	Z12	X13	Y13	Z13	X14	Y14	Z14	X15	Y15	Z15	X16	Y16	Z16	X17	Y17	Z17	X18	Y18	Z18	X19	Y19	Z19	X20	Y20	Z20	X21	Y21	Z21	X22	Y22	Z22	X23	Y23	Z23	X24	Y24	Z24	X25	Y25	Z25
126	1.25000000	-322.228455	1362.952637	-74.984253	-340.801086	1345.488159	-419.003906	-401.667603	1415.870117	-230.091843	-259.123291	1319.274658	-240.889053	-341.531525	1055.783569	42.402245	-351.495209	1040.127319	-505.358246	-264.628983	830.717438	54.300572	-236.135910	836.490509	-508.779678	-232.398819	926.395386	-116.934967	-220.926422	922.533020	-346.117157	-445.688751	907.127930	-236.175156	-457.771240	1148.626831	-235.514359	-212.048157	1143.072266	-237.479935	-353.507965	513.261047	-64.725349	-358.523193	452.366577	-113.525696	-399.075623	244.439713	-71.684845	-351.264557	99.671059	-119.751190	-456.106812	48.907005	-185.500656	-289.053314	49.819977	-166.420105	-334.570343	528.071350	-427.561859	-348.938629	454.271362	-354.633118	-386.875122	242.456696	-389.862946	-400.367401	75.811081	-312.016235	-442.715240	46.240906	-261.578094	-271.973572	48.521027	-281.086792
127	1.26000000	-322.267639	1362.890747	-74.988297	-340.822571	1345.500244	-419.041382	-401.668152	1415.873047	-230.097458	-259.222229	1319.279175	-240.938950	-341.471771	1055.746948	42.375240	-351.463837	1040.090088	-505.332153	-264.619537	830.620728	54.215529	-236.133713	836.436798	-508.645859	-232.415802	926.406372	-116.956589	-221.080856	922.445679	-346.147339	-445.621063	907.114197	-236.223373	-457.697083	1148.616089	-235.558105	-212.043274	1143.058228	-237.617462	-353.438721	513.242798	-64.783707	-358.416046	452.383423	-113.484276	-398.997742	244.440506	-71.729149	-351.269073	99.673439	-119.746468	-456.049469	48.888905	-185.430038	-289.092621	49.816269	-166.401794	-334.636261	528.035461	-427.553650	-348.903503	454.253082	-354.629913	-386.873993	242.434662	-389.835876	-400.182404	75.609848	-312.085175	-442.480957	46.061176	-261.515686	-272.035858	48.565357	-281.037567
128	1.27000000	-322.135254	1362.870972	-75.095665	-340.892242	1345.467407	-419.081787	-401.703217	1415.860962	-230.185547	-259.248901	1319.294922	-240.931381	-341.485809	1055.728394	42.251961	-351.432953	1040.114380	-505.292847	-264.608704	830.601288	54.074094	-236.106598	836.430389	-508.604004	-232.358932	926.447449	-116.968895	-221.048981	922.441284	-346.239227	-445.645447	907.163330	-236.189026	-457.784271	1148.669556	-235.597855	-211.980576	1143.072632	-237.565384	-353.368622	513.252869	-64.808060	-358.424133	452.367065	-113.608566	-399.039429	244.483871	-71.694893	-351.385803	99.731949	-119.619904	-456.107697	48.890759	-185.501205	-289.061829	49.814068	-166.390045	-334.693237	528.072205	-427.618713	-348.948853	454.196899	-354.762970	-386.888275	242.355103	-389.853699	-400.326508	75.822937	-312.086456	-442.743134	46.299046	-261.649811	-271.968323	48.563000	-281.042664
129	1.28000000	-322.145233	1362.887451	-75.174011	-340.883820	1345.509766	-419.166534	-401.717163	1415.864136	-230.196320	-259.399261	1319.194214	-240.974991	-341.390259	1055.750977	42.175659	-351.471313	1040.025513	-505.293396	-264.641449	830.589020	53.952813	-236.040909	836.442627	-508.539856	-232.460449	926.464294	-117.015938	-221.102493	922.460022	-346.331787	-445.618011	907.105225	-236.222702	-457.732941	1148.670776	-235.681641	-212.081268	1143.095093	-237.656799	-353.362518	513.278015	-64.826500	-358.423889	452.393433	-113.598389	-399.072021	244.527374	-71.715942	-351.333221	99.718353	-119.696259	-456.062347	48.984310	-185.582291	-289.094116	49.832729	-166.422760	-334.559326	527.984619	-427.749969	-348.955444	454.221924	-354.830566	-386.857910	242.375259	-389.898956	-400.377411	75.807266	-312.059845	-442.710419	46.290375	-261.642883	-272.049347	48.557129	-281.075562
130	1.29000000	-322.176788	1362.974731	-75.202271	-340.893524	1345.484863	-419.189148	-401.701935	1415.785034	-230.291092	-259.325623	1319.267212	-241.110306	-341.274231	1055.699341	42.103432	-351.590179	1040.039673	-505.072449	-264.595505	830.540558	53.829210	-236.052071	836.402008	-508.461502	-232.458939	926.482849	-117.089973	-221.152435	922.408386	-346.349548	-445.660065	907.176208	-236.326584	-457.651276	1148.656738	-235.733032	-212.126251	1143.128052	-237.846451	-353.345428	513.244751	-64.844406	-358.382721	452.418671	-113.638870	-399.011536	244.595520	-71.779137	-351.421600	99.779175	-119.610977	-455.983490	48.952095	-185.518768	-289.108032	49.838352	-166.415085	-334.645569	527.969421	-427.563538	-348.966003	454.224945	-354.876709	-386.854187	242.378036	-389.894653	-400.344910	75.815971	-312.068756	-442.729553	46.288815	-261.684845	-272.063385	48.576992	-281.107025
131	1.30000000	-322.212524	1362.837158	-75.250519	-340.937012	1345.509277	-419.227386	-401.682892	1415.815796	-230.348175	-259.282471	1319.267578	-241.126892	-341.309296	1055.665771	42.008080	-351.456451	1039.961914	-505.149933	-264.636871	830.403992	53.714548	-236.053886	836.387878	-508.457993	-232.410675	926.542236	-117.129181	-221.081833	922.395508	-346.433746	-445.591888	907.158813	-236.377548	-457.707214	1148.652588	-235.807571	-212.117340	1143.097290	-237.839050	-353.260590	513.212036	-64.914825	-358.409729	452.412750	-113.644577	-399.016693	244.552460	-71.754860	-351.435120	99.767662	-119.582367	-456.071411	48.896961	-185.549194	-289.054871	49.822086	-166.410538	-334.780243	527.963501	-427.549957	-348.959290	454.166260	-354.905609	-386.853973	242.366592	-389.888672	-400.171814	75.547089	-312.106567	-442.493500	46.115829	-261.613464	-271.985016	48.592976	-281.135040
132	1.31000000	-322.261292	1362.872925	-75.284721	-340.935760	1345.453979	-419.278168	-401.745087	1415.784912	-230.394318	-259.400146	1319.282349	-241.158798	-341.361542	1055.583374	41.890759	-351.440613	1039.915649	-505.168243	-264.575699	830.452240	53.632601	-236.040009	836.401337	-508.406128	-232.402145	926.499084	-117.101494	-221.064148	922.392761	-346.469757	-445.584015	907.077759	-236.374954	-457.678741	1148.521973	-235.845886	-212.055069	1143.087769	-237.907013	-353.286530	513.192200	-64.895546	-358.319611	452.398895	-113.708900	-398.889832	244.582001	-72.068886	-351.320618	99.709251	-119.706299	-456.083405	48.898354	-185.552826	-289.043945	49.825062	-166.431702	-334.726288	527.966614	-427.618439	-348.970337	454.164276	-354.892883	-386.769836	242.276169	-389.920563	-400.298615	75.746193	-312.117645	-442.755981	46.223526	-261.636536	-271.958710	48.591900	-281.095367
133	1.32000000	-322.327759	1362.876709	-75.320549	-340.937012	1345.468872	-419.333588	-401.661163	1415.772095	-230.465714	-259.346436	1319.267700	-241.259567	-341.199860	1055.594116	41.778034	-351.473938	1039.915283	-505.184692	-264.490250	830.456024	53.513605	-236.004440	836.342804	-508.337936	-232.375259	926.525208	-117.232841	-221.135071	922.454468	-346.560364	-445.535034	907.088562	-236.437439	-457.653900	1148.514404	-235.871948	-212.023178	1143.159790	-237.973831	-353.243164	513.289124	-64.909004	-358.309814	452.322052	-113.656876	-398.914093	244.566971	-72.122185	-351.312592	99.688477	-119.718361	-456.038025	48.854713	-185.442017	-289.054413	49.822826	-166.405151	-334.816284	527.960938	-427.488190	-348.888702	454.202209	-354.947540	-386.779602	242.276672	-389.962982	-400.325653	75.793114	-312.129944	-442.802551	46.263817	-261.619843	-272.043030	48.550247	-281.098114
134	1.33000000	-322.237091	1362.795654	-75.385132	-340.995667	1345.489624	-419.384369	-401.756470	1415.812744	-230.548126	-259.333710	1319.271606	-241.282547	-341.193573	1055.629150	41.807705	-351.433472	1039.873779	-505.193970	-264.366608	830.421661	53.426080	-235.983818	836.325012	-508.274292	-232.317062	926.523193	-117.340569	-221.112793	922.385986	-346.670654	-445.596619	907.112793	-236.510712	-457.632446	1148.591431	-236.008453	-212.055359	1143.155640	-238.093399	-353.222137	513.308777	-64.954224	-358.319794	452.356567	-113.715736	-399.085999	244.623184	-71.842041	-351.331604	99.700035	-119.703453	-456.009827	48.932930	-185.462769	-289.045288	49.812752	-166.413025	-334.642365	527.930847	-427.924774	-348.859650	454.212006	-355.000397	-386.874420	242.291840	-389.993408	-400.315491	75.785942	-312.122131	-442.788910	46.249641	-261.626709	-272.066193	48.507050	-281.075775
135	1.34000000	-322.325806	1362.842407	-75.464020	-340.977753	1345.517822	-419.491699	-401.738556	1415.784180	-230.577408	-259.326904	1319.336060	-241.472244	-341.237396	1055.604614	41.705997	-351.536469	1039.880127	-504.949280	-264.271423	830.359314	53.242969	-235.997314	836.316284	-508.244766	-232.276855	926.532593	-117.361320	-221.006577	922.393616	-346.788483	-445.589050	907.116577	-236.532272	-457.599792	1148.559204	-236.048843	-212.051788	1143.174683	-238.126358	-353.154572	513.363159	-65.133232	-358.241821	452.370972	-113.708839	-399.043304	244.616119	-71.882446	-351.297302	99.693115	-119.725922	-456.015015	48.957489	-185.463943	-289.045898	49.825241	-166.431610	-334.560242	527.902832	-428.077942	-348.939972	454.204559	-355.122498	-386.760864	242.284027	-390.103851	-400.297089	75.617432	-312.287415	-442.701050	46.055222	-261.776917	-271.963470	48.623829	-281.129883
136	1.35000000	-322.323303	1362.820557	-75.480705	-341.007538	1345.500366	-419.501556	-401.800812	1415.844360	-230.655624	-259.328125	1319.358398	-241.484314	-341.327942	1055.617798	41.656742	-351.480377	1039.832886	-505.146149	-264.188766	830.394592	53.181709	-236.015251	836.276123	-508.204880	-232.225983	926.573608	-117.400482	-221.089691	922.394348	-346.881439	-445.497833	907.167786	-236.602417	-457.677277	1148.574585	-236.092163	-212.074677	1143.078003	-238.171814	-353.130402	513.338989	-65.163307	-358.280090	452.444489	-113.720467	-399.008423	244.703430	-71.890129	-351.280853	99.682777	-119.737549	-456.016785	48.957073	-185.462845	-289.055786	49.829540	-166.418793	-334.602600	527.908020	-428.109955	-348.939880	454.156647	-355.144897	-386.761475	242.277679	-390.077881	-400.268250	75.530403	-312.264984	-442.589691	46.008282	-261.780273	-271.968536	48.514919	-281.060303
137	1.36000000	-322.293335	1362.789673	-75.602501	-341.000824	1345.478149	-419.498566	-401.787781	1415.840332	-230.682816	-259.344269	1319.289673	-241.520065	-341.232208	1055.578003	41.574654	-351.510742	1039.792236	-505.154480	-264.117401	830.362640	53.051925	-235.975853	836.258545	-508.182220	-232.287476	926.515198	-117.565132	-221.168579	922.279236	-346.897217	-445.554596	907.179871	-236.679169	-457.667877	1148.567505	-236.117035	-211.983093	1143.136475	-238.296768	-353.150482	513.382202	-65.136482	-358.320007	452.425262	-113.818985	-398.993622	244.691849	-71.910652	-351.477905	99.953255	-119.534462	-456.087677	48.979065	-185.534958	-288.981476	49.849247	-166.454758	-334.728760	527.884216	-428.168121	-348.946503	454.167694	-355.233124	-386.782867	242.252441	-390.172241	-400.254395	75.608810	-312.301666	-442.645142	46.056774	-261.841370	-272.037231	48.597363	-281.095428
138	1.37000000	-322.329041	1362.787964	-75.658585	-340.963684	1345.457275	-419.477325	-401.798340	1415.810791	-230.742767	-259.487457	1319.257935	-241.542389	-341.182373	1055.470337	41.552826	-351.549530	1039.802368	-504.939667	-264.063095	830.372528	52.985399	-235.911575	836.245575	-508.125793	-232.233276	926.485352	-117.553749	-221.186066	922.264587	-346.907043	-445.562286	907.181030	-236.680283	-457.654938	1148.564575	-236.232620	-212.060089	1143.139771	-238.355759	-353.153015	513.386475	-65.126053	-358.317352	452.437500	-113.825668	-398.855133	244.652313	-72.201904	-351.521210	99.862610	-119.531624	-456.023987	48.960480	-185.467911	-289.042358	49.828617	-166.421997	-334.681061	527.865479	-428.240112	-349.026550	454.182617	-355.291016	-386.715424	242.202316	-390.231812	-400.196198	75.550545	-312.351166	-442.552277	45.946045	-261.812317	-272.034821	48.610916	-281.107452
